<svg width="161" height="167" viewBox="0 0 161 167" fill="none" xmlns="http://www.w3.org/2000/svg">
<g filter="url(#filter0_d_0_674)">
<path fill-rule="evenodd" clip-rule="evenodd" d="M85.6576 157.408C88.0371 155.707 87.443 154.692 88.5444 152.655C89.6507 150.616 88.7162 149.768 90.5868 147.984C92.4557 146.203 90.2464 145.013 92.6242 143.909C95.0054 142.805 94.665 144.93 92.711 147.39C90.757 149.855 90.4166 150.532 92.9646 148.664C95.5127 146.796 96.4472 144.163 97.8922 141.191C99.3356 138.219 100.442 137.287 101.715 137.115C102.987 136.947 102.987 133.806 102.818 131.6C102.648 129.388 101.969 127.352 102.902 125.908C103.836 124.465 102.902 123.109 104.093 123.109C105.283 123.109 107.067 121.323 108.934 119.455C110.804 117.589 111.994 117.419 113.946 117.247C115.9 117.077 114.797 116.396 116.071 116.059C117.344 115.721 118.195 114.53 119.044 113.765C119.894 113.002 123.376 113.851 125.415 113.851C127.456 113.851 128.813 114.021 128.813 112.749C128.813 111.475 129.747 110.454 130.938 110.454C132.125 110.454 132.637 110.119 132.637 108.418C132.637 106.722 133.146 105.701 134.164 104.935C135.185 104.173 135.355 102.476 135.696 101.371C136.036 100.267 137.138 100.943 137.138 99.3351C137.138 97.7207 137.733 95.9395 137.733 94.6637C137.733 93.3928 139.092 93.558 139.687 92.6241C140.283 91.6918 139.177 90.5059 140.111 87.8709C141.046 85.2392 140.111 82.7775 140.111 80.401C140.111 78.0228 140.111 75.5595 140.962 74.7924C141.813 74.0302 141.388 73.6065 140.708 73.263C140.028 72.9261 140.794 71.9922 141.388 72.1639C141.982 72.3307 142.661 73.6065 143.767 72.9261C144.872 72.2457 145.89 69.3588 146.824 66.9822C147.76 64.604 149.289 64.6907 150.477 64.182C151.668 63.67 154.218 60.7848 155.83 56.6221C157.443 52.4627 155.743 48.3883 155.064 45.503C154.383 42.6112 153.449 43.2066 151.753 43.2917C150.053 43.3784 146.824 42.9531 142.577 38.3668C138.331 33.7804 134.166 34.1207 131.364 34.8861C128.559 35.6516 125.672 33.5269 123.802 33.1033C121.933 32.678 120.149 35.0546 118.791 35.5649C117.429 36.0736 119.47 33.5269 119.555 31.9142C119.64 30.2998 114.457 28.0083 110.549 26.4806C106.643 24.9513 104.942 25.7168 104.942 28.1784C104.942 30.6417 103.414 27.4129 102.224 30.0496C101.033 32.6797 98.8234 30.9802 100.27 30.133C101.713 29.2841 103.072 27.3279 103.582 25.7184C104.093 24.1057 97.9757 22.8266 95.8531 23.6804C93.7273 24.5293 95.0856 27.5863 93.3885 26.6523C91.6882 25.7184 93.0481 23.422 94.4081 23.5103C95.768 23.5953 97.2981 20.7935 98.231 18.7555C99.1654 16.7159 96.6174 16.374 95.0872 14.6795C93.5767 12.9997 93.8893 8.10097 92.3395 7.32568C90.6752 8.97113 88.4413 11.5423 87.8112 13.4299C87.0044 15.8441 85.9702 14.462 83.7854 15.1555C81.6007 15.8441 80.5647 14.9199 79.9903 14.0056C79.4159 13.0798 77.2279 14.0056 75.7354 13.8895C74.2396 13.7734 75.1577 15.7279 74.1234 16.307C73.0891 16.8794 70.4429 15.1571 69.5231 16.1925C68.6034 17.2262 68.029 16.1925 67.5691 17.1117C67.1076 18.0293 65.4973 17.4568 65.0374 18.0293C64.576 18.605 62.9689 18.9485 60.8954 16.6488C58.8269 14.3556 59.1705 10.5577 60.0919 9.86909C61.01 9.18049 61.01 7.22427 59.7449 6.64689C58.4799 6.07606 59.7449 3.65859 58.1379 3.43123C56.5259 3.20224 56.7567 5.26969 55.7224 5.61317C54.6881 5.95829 52.1564 7.68552 51.0059 7.4549C49.8555 7.22264 48.3597 7.68552 48.3597 8.9466C48.3597 10.2126 47.0963 9.86746 46.8655 8.83537C46.6364 7.80002 44.2209 8.37249 43.532 7.68552C42.8413 6.99528 39.6207 7.33877 41.0003 8.1435C42.3798 8.9466 42.496 9.75133 42.496 11.0173C42.496 12.2833 43.532 11.9349 43.532 13.4331C43.532 14.9232 44.6808 13.8911 45.486 13.8911C46.2911 13.8911 46.2911 15.2749 45.0277 15.499C43.7627 15.7296 43.1866 16.4165 42.8413 17.5729C42.496 18.7212 41.3472 17.9131 40.3129 18.834C39.277 19.7565 38.3573 20.6741 37.665 20.2129C36.9761 19.7581 36.4016 20.1016 35.5965 20.5596C34.7913 21.0176 34.446 20.5596 33.2955 19.6404C32.4347 18.9501 31.8947 17.2883 30.3678 15.7754C29.4579 16.2072 27.6103 16.8745 26.6169 16.8745C25.2749 16.8745 21.0593 16.567 20.8302 17.2982C20.6011 18.0227 21.1378 19.2495 21.8268 19.3983C22.5174 19.5553 23.9723 19.9757 22.5943 20.9718C21.2147 21.963 19.9874 20.6283 19.9874 23.0376C19.9874 25.4518 23.0836 27.0171 22.4405 29.2448C22.1083 30.3914 21.6533 33.3372 21.6533 34.4674C21.6533 35.5993 21.2033 39.4479 20.1837 39.6704C19.1642 39.901 18.2576 38.7708 16.8976 39.901C15.5377 41.0329 13.8406 40.3524 12.2548 41.6021C10.669 42.8435 8.97031 42.3904 8.85739 43.8641C8.74283 45.3362 7.27324 46.1295 7.612 47.4871C7.9524 48.8447 6.93121 48.5061 5.91166 49.5251C4.89374 50.5441 6.02458 51.2212 5.34378 52.0161C4.66299 52.8094 5.57126 54.0509 6.36334 55.2972C7.15541 56.5436 8.06368 57.4465 7.95076 58.5816C7.8362 59.7118 8.7412 60.1682 9.87531 60.0504C11.0078 59.9392 10.0995 62.2029 11.9144 62.2029C13.726 62.2029 15.5377 62.656 15.9926 61.6386C16.4459 60.618 17.6913 59.8263 17.6913 61.2984C17.6913 62.7672 17.3509 66.7336 18.5963 66.2805C19.8433 65.8275 22.3358 65.9354 23.5828 66.3901C24.8265 66.8432 26.0719 66.3901 26.8656 65.5985C27.6594 64.8085 28.5644 64.8117 30.1485 63.9039C31.7359 62.9945 33.2072 61.8659 34.6833 61.8659C36.1545 61.8659 38.6469 60.9565 38.3049 62.0884C37.9645 63.2219 37.7403 67.4124 39.5519 69.5616C41.3636 71.7125 42.3815 72.5057 44.0818 72.28C45.7822 72.051 45.5547 72.9555 46.8017 72.8476C48.0471 72.7347 47.255 74.2035 48.3891 74.2035C49.52 74.2035 51.5574 74.4309 51.5574 75.674C51.5574 76.922 54.9581 75.903 55.7518 76.5818C56.5439 77.2589 57.4489 77.8265 57.2231 79.1841C56.994 80.5449 58.9218 81.5639 57.7909 82.1282C56.6552 82.6941 58.1297 83.826 58.2426 85.2981C58.3539 86.7685 59.9413 87.3361 62.4337 87.2216C64.9245 87.1136 65.607 87.3361 65.607 89.15C65.607 90.9574 67.304 91.1863 67.8703 92.8858C68.4381 94.5819 67.1911 96.5054 67.4186 97.8663C67.5904 98.9098 66.9604 100.014 66.2517 100.47C67.1256 101.584 67.1977 102.085 66.4138 102.516C65.3811 103.09 67.6804 104.698 67.106 107.225C66.5316 109.759 66.417 110.215 69.0633 110.33C71.7046 110.446 71.4755 111.249 72.3952 110.673C73.3166 110.098 74.6945 112.628 75.0399 113.899C75.3852 115.16 76.4194 118.145 76.8793 118.145C77.3424 118.145 78.7204 116.764 80.1 117.458C81.383 118.097 79.7841 122.416 79.7383 124.308C80.6973 124.274 81.8707 124.277 82.2585 124.472C82.9475 124.82 83.2912 129.462 82.9492 130.324C82.6038 131.181 79.7612 131.955 78.2998 132.902C76.8384 133.849 73.3084 137.203 71.6719 139.871C70.7047 141.453 69.2891 142.758 68.2941 143.898C68.7671 143.967 69.1664 143.949 69.4348 143.829C70.2088 143.483 71.415 143.483 72.7062 145.03C73.999 146.58 73.9123 147.786 74.4278 147.701C74.9449 147.611 75.5488 145.635 76.5798 147.099C77.6125 148.56 80.28 149.678 80.8822 150.367C81.4845 151.055 83.4647 151.572 83.4647 153.378C83.4647 154.67 82.8542 157.116 83.8672 159.186C84.3549 158.552 84.9097 157.942 85.6576 157.408Z" fill="#110F1E"/>
<path fill-rule="evenodd" clip-rule="evenodd" d="M85.6576 157.408C88.0371 155.707 87.443 154.692 88.5444 152.655C89.6507 150.616 88.7162 149.768 90.5868 147.984C92.4557 146.203 90.2464 145.013 92.6242 143.909C95.0054 142.805 94.665 144.93 92.711 147.39C90.757 149.855 90.4166 150.532 92.9646 148.664C95.5127 146.796 96.4472 144.163 97.8922 141.191C99.3356 138.219 100.442 137.287 101.715 137.115C102.987 136.947 102.987 133.806 102.818 131.6C102.648 129.388 101.969 127.352 102.902 125.908C103.836 124.465 102.902 123.109 104.093 123.109C105.283 123.109 107.067 121.323 108.934 119.455C110.804 117.589 111.994 117.419 113.946 117.247C115.9 117.077 114.797 116.396 116.071 116.059C117.344 115.721 118.195 114.53 119.044 113.765C119.894 113.002 123.376 113.851 125.415 113.851C127.456 113.851 128.813 114.021 128.813 112.749C128.813 111.475 129.747 110.454 130.938 110.454C132.125 110.454 132.637 110.119 132.637 108.418C132.637 106.722 133.146 105.701 134.164 104.935C135.185 104.173 135.355 102.476 135.696 101.371C136.036 100.267 137.138 100.943 137.138 99.3351C137.138 97.7207 137.733 95.9395 137.733 94.6637C137.733 93.3928 139.092 93.558 139.687 92.6241C140.283 91.6918 139.177 90.5059 140.111 87.8709C141.046 85.2392 140.111 82.7775 140.111 80.401C140.111 78.0228 140.111 75.5595 140.962 74.7924C141.813 74.0302 141.388 73.6065 140.708 73.263C140.028 72.9261 140.794 71.9922 141.388 72.1639C141.982 72.3307 142.661 73.6065 143.767 72.9261C144.872 72.2457 145.89 69.3588 146.824 66.9822C147.76 64.604 149.289 64.6907 150.477 64.182C151.668 63.67 154.218 60.7848 155.83 56.6221C157.443 52.4627 155.743 48.3883 155.064 45.503C154.383 42.6112 153.449 43.2066 151.753 43.2917C150.053 43.3784 146.824 42.9531 142.577 38.3668C138.331 33.7804 134.166 34.1207 131.364 34.8861C128.559 35.6516 125.672 33.5269 123.802 33.1033C121.933 32.678 120.149 35.0546 118.791 35.5649C117.429 36.0736 119.47 33.5269 119.555 31.9142C119.64 30.2998 114.457 28.0083 110.549 26.4806C106.643 24.9513 104.942 25.7168 104.942 28.1784C104.942 30.6417 103.414 27.4129 102.224 30.0496C101.033 32.6797 98.8234 30.9802 100.27 30.133C101.713 29.2841 103.072 27.3279 103.582 25.7184C104.093 24.1057 97.9757 22.8266 95.8531 23.6804C93.7273 24.5293 95.0856 27.5863 93.3885 26.6523C91.6882 25.7184 93.0481 23.422 94.4081 23.5103C95.768 23.5953 97.2981 20.7935 98.231 18.7555C99.1654 16.7159 96.6174 16.374 95.0872 14.6795C93.5767 12.9997 93.8893 8.10097 92.3395 7.32568C90.6752 8.97113 88.4413 11.5423 87.8112 13.4299C87.0044 15.8441 85.9702 14.462 83.7854 15.1555C81.6007 15.8441 80.5647 14.9199 79.9903 14.0056C79.4159 13.0798 77.2279 14.0056 75.7354 13.8895C74.2396 13.7734 75.1577 15.7279 74.1234 16.307C73.0891 16.8794 70.4429 15.1571 69.5231 16.1925C68.6034 17.2262 68.029 16.1925 67.5691 17.1117C67.1076 18.0293 65.4973 17.4568 65.0374 18.0293C64.576 18.605 62.9689 18.9485 60.8954 16.6488C58.8269 14.3556 59.1705 10.5577 60.0919 9.86909C61.01 9.18049 61.01 7.22427 59.7449 6.64689C58.4799 6.07606 59.7449 3.65859 58.1379 3.43123C56.5259 3.20224 56.7567 5.26969 55.7224 5.61317C54.6881 5.95829 52.1564 7.68552 51.0059 7.4549C49.8555 7.22264 48.3597 7.68552 48.3597 8.9466C48.3597 10.2126 47.0963 9.86746 46.8655 8.83537C46.6364 7.80002 44.2209 8.37249 43.532 7.68552C42.8413 6.99528 39.6207 7.33877 41.0003 8.1435C42.3798 8.9466 42.496 9.75133 42.496 11.0173C42.496 12.2833 43.532 11.9349 43.532 13.4331C43.532 14.9232 44.6808 13.8911 45.486 13.8911C46.2911 13.8911 46.2911 15.2749 45.0277 15.499C43.7627 15.7296 43.1866 16.4165 42.8413 17.5729C42.496 18.7212 41.3472 17.9131 40.3129 18.834C39.277 19.7565 38.3573 20.6741 37.665 20.2129C36.9761 19.7581 36.4016 20.1016 35.5965 20.5596C34.7913 21.0176 34.446 20.5596 33.2955 19.6404C32.4347 18.9501 31.8947 17.2883 30.3678 15.7754C29.4579 16.2072 27.6103 16.8745 26.6169 16.8745C25.2749 16.8745 21.0593 16.567 20.8302 17.2982C20.6011 18.0227 21.1378 19.2495 21.8268 19.3983C22.5174 19.5553 23.9723 19.9757 22.5943 20.9718C21.2147 21.963 19.9874 20.6283 19.9874 23.0376C19.9874 25.4518 23.0836 27.0171 22.4405 29.2448C22.1083 30.3914 21.6533 33.3372 21.6533 34.4674C21.6533 35.5993 21.2033 39.4479 20.1837 39.6704C19.1642 39.901 18.2576 38.7708 16.8976 39.901C15.5377 41.0329 13.8406 40.3524 12.2548 41.6021C10.669 42.8435 8.97031 42.3904 8.85739 43.8641C8.74283 45.3362 7.27324 46.1295 7.612 47.4871C7.9524 48.8447 6.93121 48.5061 5.91166 49.5251C4.89374 50.5441 6.02458 51.2212 5.34378 52.0161C4.66299 52.8094 5.57126 54.0509 6.36334 55.2972C7.15541 56.5436 8.06368 57.4465 7.95076 58.5816C7.8362 59.7118 8.7412 60.1682 9.87531 60.0504C11.0078 59.9392 10.0995 62.2029 11.9144 62.2029C13.726 62.2029 15.5377 62.656 15.9926 61.6386C16.4459 60.618 17.6913 59.8263 17.6913 61.2984C17.6913 62.7672 17.3509 66.7336 18.5963 66.2805C19.8433 65.8275 22.3358 65.9354 23.5828 66.3901C24.8265 66.8432 26.0719 66.3901 26.8656 65.5985C27.6594 64.8085 28.5644 64.8117 30.1485 63.9039C31.7359 62.9945 33.2072 61.8659 34.6833 61.8659C36.1545 61.8659 38.6469 60.9565 38.3049 62.0884C37.9645 63.2219 37.7403 67.4124 39.5519 69.5616C41.3636 71.7125 42.3815 72.5057 44.0818 72.28C45.7822 72.051 45.5547 72.9555 46.8017 72.8476C48.0471 72.7347 47.255 74.2035 48.3891 74.2035C49.52 74.2035 51.5574 74.4309 51.5574 75.674C51.5574 76.922 54.9581 75.903 55.7518 76.5818C56.5439 77.2589 57.4489 77.8265 57.2231 79.1841C56.994 80.5449 58.9218 81.5639 57.7909 82.1282C56.6552 82.6941 58.1297 83.826 58.2426 85.2981C58.3539 86.7685 59.9413 87.3361 62.4337 87.2216C64.9245 87.1136 65.607 87.3361 65.607 89.15C65.607 90.9574 67.304 91.1863 67.8703 92.8858C68.4381 94.5819 67.1911 96.5054 67.4186 97.8663C67.5904 98.9098 66.9604 100.014 66.2517 100.47C67.1256 101.584 67.1977 102.085 66.4138 102.516C65.3811 103.09 67.6804 104.698 67.106 107.225C66.5316 109.759 66.417 110.215 69.0633 110.33C71.7046 110.446 71.4755 111.249 72.3952 110.673C73.3166 110.098 74.6945 112.628 75.0399 113.899C75.3852 115.16 76.4194 118.145 76.8793 118.145C77.3424 118.145 78.7204 116.764 80.1 117.458C81.383 118.097 79.7841 122.416 79.7383 124.308C80.6973 124.274 81.8707 124.277 82.2585 124.472C82.9475 124.82 83.2912 129.462 82.9492 130.324C82.6038 131.181 79.7612 131.955 78.2998 132.902C76.8384 133.849 73.3084 137.203 71.6719 139.871C70.7047 141.453 69.2891 142.758 68.2941 143.898C68.7671 143.967 69.1664 143.949 69.4348 143.829C70.2088 143.483 71.415 143.483 72.7062 145.03C73.999 146.58 73.9123 147.786 74.4278 147.701C74.9449 147.611 75.5488 145.635 76.5798 147.099C77.6125 148.56 80.28 149.678 80.8822 150.367C81.4845 151.055 83.4647 151.572 83.4647 153.378C83.4647 154.67 82.8542 157.116 83.8672 159.186C84.3549 158.552 84.9097 157.942 85.6576 157.408Z" stroke="#3A364B"/>
</g>
<defs>
<filter id="filter0_d_0_674" x="0.604401" y="0.913574" width="160.4" height="165.217" filterUnits="userSpaceOnUse" color-interpolation-filters="sRGB">
<feFlood flood-opacity="0" result="BackgroundImageFix"/>
<feColorMatrix in="SourceAlpha" type="matrix" values="0 0 0 0 0 0 0 0 0 0 0 0 0 0 0 0 0 0 127 0" result="hardAlpha"/>
<feOffset dy="2"/>
<feGaussianBlur stdDeviation="2"/>
<feColorMatrix type="matrix" values="0 0 0 0 0 0 0 0 0 0 0 0 0 0 0 0 0 0 0.01 0"/>
<feBlend mode="normal" in2="BackgroundImageFix" result="effect1_dropShadow_0_674"/>
<feBlend mode="normal" in="SourceGraphic" in2="effect1_dropShadow_0_674" result="shape"/>
</filter>
</defs>
</svg>
