<svg width="40" height="44" viewBox="0 0 40 44" fill="none" xmlns="http://www.w3.org/2000/svg">
<path fill-rule="evenodd" clip-rule="evenodd" d="M32.0165 13.7476C35.8793 13.7476 38.7765 15.6893 39.7422 19.5728C39.7422 22.4854 37.8108 26.369 34.9136 26.369C31.0508 27.3398 28.1536 25.3981 27.1879 21.5146C26.2222 18.6019 29.1193 14.7184 32.0165 13.7476ZM8.83931 0.155276C13.6679 -0.815601 19.4622 3.06791 20.4279 8.89317C21.3936 13.7476 17.5308 19.5728 12.7022 20.5437C6.9079 21.5146 1.11361 17.6311 0.147893 12.7767C-0.817821 6.95141 3.04503 1.12615 8.83931 0.155276ZM12.7022 26.369C17.5308 25.3981 22.3593 28.3107 23.325 33.1651C24.2907 38.0195 20.4279 42.8739 15.5993 43.8447C10.7708 44.8156 5.94218 41.903 4.97646 37.0486C4.01075 32.1942 6.9079 27.3398 12.7022 26.369Z" fill="white"/>
</svg>
