<svg width="65" height="64" viewBox="0 0 65 64" fill="none" xmlns="http://www.w3.org/2000/svg">
<rect x="0.833313" y="0.5" width="63" height="63" rx="3.5" fill="url(#paint0_linear_0_224)"/>
<rect x="0.833313" y="0.5" width="63" height="63" rx="3.5" stroke="white"/>
<path d="M39.9733 42.5C39.7127 42.9582 39.3347 43.3388 38.8782 43.6024C38.4217 43.8661 37.9031 44.0033 37.376 44H27.6653C27.1339 43.9991 26.6125 43.8553 26.1558 43.5837C25.699 43.312 25.3238 42.9225 25.0693 42.456L19.3733 33.456C19.1283 33.0098 18.9999 32.509 18.9999 32C18.9999 31.491 19.1283 30.9902 19.3733 30.544L25.0693 21.544C25.324 21.078 25.6991 20.6888 26.1555 20.4172C26.6119 20.1456 27.1329 20.0015 27.664 20H37.3773C38.456 20 39.4493 20.5907 39.9733 21.544L45.28 30.544C45.5333 31.0034 45.6661 31.5194 45.6661 32.044C45.6661 32.5686 45.5333 33.0846 45.28 33.544L39.9733 42.544V42.5Z" stroke="white" stroke-width="2" stroke-linecap="round" stroke-linejoin="round"/>
<path d="M35 34.6667L37.6667 37.3334M27 31.3334C27 32.5711 27.4917 33.7581 28.3668 34.6332C29.242 35.5084 30.429 36.0001 31.6667 36.0001C32.9043 36.0001 34.0913 35.5084 34.9665 34.6332C35.8417 33.7581 36.3333 32.5711 36.3333 31.3334C36.3333 30.0957 35.8417 28.9088 34.9665 28.0336C34.0913 27.1584 32.9043 26.6667 31.6667 26.6667C30.429 26.6667 29.242 27.1584 28.3668 28.0336C27.4917 28.9088 27 30.0957 27 31.3334Z" stroke="white" stroke-width="2" stroke-linecap="round" stroke-linejoin="round"/>
<defs>
<linearGradient id="paint0_linear_0_224" x1="-2.23517e-07" y1="-2.23517e-07" x2="64" y2="64" gradientUnits="userSpaceOnUse">
<stop offset="0.9999" stop-color="#9351E8"/>
<stop offset="1" stop-color="#AE3BAE"/>
</linearGradient>
</defs>
</svg>
