<svg width="64" height="64" viewBox="0 0 64 64" fill="none" xmlns="http://www.w3.org/2000/svg">
<rect x="0.5" y="0.5" width="63" height="63" rx="3.5" fill="url(#paint0_linear_0_208)"/>
<rect x="0.5" y="0.5" width="63" height="63" rx="3.5" stroke="white"/>
<path d="M30.4 22.3999C29.1792 22.3999 28.04 22.7407 27.0688 23.3343C26.9684 22.7973 26.7855 22.2792 26.5264 21.7983C27.7445 21.1242 29.1174 20.7797 30.5094 20.7987C31.9014 20.8177 33.2644 21.1997 34.4636 21.9068C35.6627 22.614 36.6566 23.6218 37.347 24.8307C38.0374 26.0396 38.4004 27.4077 38.4 28.7999H42.4016C43.0379 28.8003 43.6479 29.0534 44.0976 29.5034C44.5474 29.9534 44.8 30.5636 44.8 31.1999V40.7999C44.8 41.4364 44.5472 42.0469 44.0971 42.4969C43.647 42.947 43.0365 43.1999 42.4 43.1999H32.8C32.1635 43.1999 31.553 42.947 31.103 42.4969C30.6529 42.0469 30.4 41.4364 30.4 40.7999V36.7999C29.287 36.8013 28.1861 36.5697 27.168 36.1199C27.1888 35.5759 27.2 35.0047 27.2 34.3999V34.3439C28.1408 34.8879 29.2336 35.1999 30.4 35.1999V31.1999C30.4 30.5634 30.6529 29.9529 31.103 29.5028C31.553 29.0527 32.1635 28.7999 32.8 28.7999H36.8C36.8 27.1025 36.1257 25.4746 34.9255 24.2744C33.7253 23.0742 32.0974 22.3999 30.4 22.3999ZM38.24 30.3999C37.9253 31.9368 37.1662 33.3474 36.0569 34.4568C34.9476 35.5661 33.5369 36.3252 32 36.6399V40.7999C32 41.0121 32.0843 41.2155 32.2343 41.3656C32.3844 41.5156 32.5878 41.5999 32.8 41.5999H42.4C42.6122 41.5999 42.8157 41.5156 42.9657 41.3656C43.1157 41.2155 43.2 41.0121 43.2 40.7999V31.1999C43.2 30.9877 43.1157 30.7842 42.9657 30.6342C42.8157 30.4842 42.6122 30.3999 42.4 30.3999H38.24ZM36.5984 30.3999H32.8C32.5878 30.3999 32.3844 30.4842 32.2343 30.6342C32.0843 30.7842 32 30.9877 32 31.1999V34.9983C33.1069 34.7115 34.117 34.1339 34.9255 33.3254C35.7341 32.5169 36.3116 31.5068 36.5984 30.3999ZM23.3296 19.3999C23.4624 19.5161 23.5531 19.6729 23.5875 19.8459C23.622 20.019 23.5982 20.1985 23.52 20.3567C23.5065 20.4035 23.4995 20.452 23.4992 20.5007C23.4992 20.6015 23.5248 20.7935 23.7664 21.0335C23.8832 21.1503 23.9728 21.2335 24.0704 21.3247C24.1504 21.3983 24.2352 21.4751 24.3424 21.5807C24.5504 21.7791 24.7696 22.0127 24.9664 22.3055C25.3744 22.9183 25.6 23.6847 25.6 24.7999C25.6 26.1647 25.0944 27.3279 24.3056 28.0415L24.408 28.1599C24.856 28.7103 25.1168 29.4239 25.28 30.1279C25.6 31.5199 25.6 33.1935 25.6 34.3599V34.3999C25.6 38.8591 24.9936 41.3887 24.3264 42.8351C23.9904 43.5631 23.6336 44.0271 23.3248 44.3183C23.1993 44.4387 23.0608 44.545 22.912 44.6351C22.8439 44.6761 22.7727 44.7119 22.6992 44.7423C22.6992 44.7423 22.5184 44.7999 22.4 44.7999C22.2816 44.7999 22.1008 44.7423 22.1008 44.7423C22.0265 44.7137 21.9552 44.6778 21.888 44.6351C21.7392 44.545 21.6008 44.4387 21.4752 44.3183C21.1664 44.0255 20.8096 43.5631 20.4736 42.8351C19.8064 41.3887 19.2 38.8591 19.2 34.3999V34.3599C19.2 33.1919 19.2 31.5199 19.52 30.1279C19.6832 29.4239 19.944 28.7103 20.392 28.1599C20.424 28.1199 20.4592 28.0799 20.4944 28.0415C19.7056 27.3279 19.2 26.1647 19.2 24.7999C19.2 24.2783 19.3392 23.6559 19.5312 23.0815C19.7232 22.5055 19.992 21.9103 20.3024 21.4303C20.672 20.8063 21.192 20.2831 21.5952 19.9311C21.8163 19.7367 22.047 19.5535 22.2864 19.3823L22.3344 19.3503L22.3488 19.3391L22.3536 19.3359L22.3568 19.3343C22.5035 19.2365 22.6784 19.1899 22.8544 19.2018C23.0303 19.2136 23.1974 19.2833 23.3296 19.3999ZM22.4 27.1999C23.0192 27.1983 24 26.5119 24 24.7999C24 23.9151 23.8256 23.4815 23.6336 23.1935C23.5169 23.0253 23.3822 22.8702 23.232 22.7311L23.0336 22.5455C22.904 22.4239 22.752 22.2831 22.6336 22.1663C22.4586 21.9931 22.3084 21.7966 22.1872 21.5823C21.9835 21.7964 21.8043 22.0325 21.6528 22.2863C21.4288 22.6303 21.2112 23.1023 21.0496 23.5887C20.8832 24.0847 20.8 24.5231 20.8 24.7999C20.8 26.5151 21.784 27.1999 22.4 27.1999ZM21.632 29.1711C21.4048 29.4479 21.216 29.8895 21.0784 30.4879C20.8032 31.6847 20.8 33.1887 20.8 34.3999C20.8 38.7407 21.3936 41.0111 21.9264 42.1647C22.1024 42.5439 22.2672 42.7967 22.4 42.9647C22.5891 42.7178 22.748 42.4492 22.8736 42.1647C23.4064 41.0111 24 38.7407 24 34.3999C24 33.1887 23.9968 31.6847 23.72 30.4879C23.5824 29.8895 23.3936 29.4479 23.168 29.1711C23.0798 29.0515 22.9637 28.9552 22.8299 28.8905C22.6961 28.8259 22.5485 28.7948 22.4 28.7999H22.3968C22.2488 28.7951 22.1018 28.8264 21.9686 28.8911C21.8354 28.9558 21.7199 29.0519 21.632 29.1711Z" fill="white"/>
<defs>
<linearGradient id="paint0_linear_0_208" x1="0" y1="0" x2="64" y2="64" gradientUnits="userSpaceOnUse">
<stop offset="0.9999" stop-color="#9351E8"/>
<stop offset="1" stop-color="#AE3BAE"/>
</linearGradient>
</defs>
</svg>
