<svg width="65" height="64" viewBox="0 0 65 64" fill="none" xmlns="http://www.w3.org/2000/svg">
<rect x="1.16666" y="0.5" width="63" height="63" rx="3.5" fill="url(#paint0_linear_0_188)" fill-opacity="0.9"/>
<rect x="1.16666" y="0.5" width="63" height="63" rx="3.5" stroke="white"/>
<path d="M21.0613 43.4694L29.5467 34.984M40.232 31.2107L37.692 38.8307C37.6515 38.9528 37.5821 39.0634 37.4897 39.153C37.3973 39.2426 37.2847 39.3086 37.1613 39.3454L21.5907 43.9734C21.4504 44.015 21.3014 44.0174 21.1598 43.9803C21.0183 43.9431 20.8896 43.8679 20.7879 43.7627C20.6862 43.6575 20.6152 43.5264 20.5828 43.3837C20.5504 43.241 20.5577 43.0922 20.604 42.9534L25.66 27.788C25.6962 27.6791 25.7555 27.5793 25.8337 27.4954C25.9119 27.4114 26.0073 27.3452 26.1133 27.3014L33.296 24.344C33.442 24.2837 33.6026 24.268 33.7576 24.2988C33.9125 24.3297 34.0549 24.4057 34.1667 24.5174L40.0387 30.3907C40.144 30.4959 40.2179 30.6283 40.252 30.7732C40.2862 30.918 40.2792 31.0696 40.232 31.2107Z" stroke="white" stroke-width="1.5" stroke-linecap="round" stroke-linejoin="round"/>
<path d="M40.3893 30.7413L44.16 26.9693C44.6599 26.4692 44.9408 25.7911 44.9408 25.084C44.9408 24.3769 44.6599 23.6987 44.16 23.1987L41.3333 20.3693C41.0857 20.1216 40.7917 19.9251 40.4681 19.791C40.1445 19.6569 39.7976 19.5879 39.4473 19.5879C39.097 19.5879 38.7502 19.6569 38.4266 19.791C38.103 19.9251 37.809 20.1216 37.5613 20.3693L33.7907 24.1413M32.3747 32.1547C32.1889 31.969 31.9684 31.8217 31.7257 31.7212C31.483 31.6208 31.2229 31.5691 30.9602 31.5692C30.6975 31.5692 30.4374 31.621 30.1948 31.7216C29.9521 31.8222 29.7317 31.9695 29.546 32.1553C29.3603 32.3411 29.213 32.5616 29.1126 32.8043C29.0121 33.047 28.9604 33.3071 28.9605 33.5698C28.9606 33.8325 29.0124 34.0925 29.1129 34.3352C29.2135 34.5778 29.3609 34.7983 29.5467 34.984C29.9219 35.359 30.4307 35.5696 30.9611 35.5695C31.4916 35.5694 32.0003 35.3585 32.3753 34.9833C32.7503 34.6081 32.961 34.0993 32.9608 33.5689C32.9607 33.0384 32.7499 32.5297 32.3747 32.1547Z" stroke="white" stroke-width="1.5" stroke-linecap="round" stroke-linejoin="round"/>
<defs>
<linearGradient id="paint0_linear_0_188" x1="65" y1="64" x2="1" y2="0" gradientUnits="userSpaceOnUse">
<stop stop-color="#9351E8"/>
</linearGradient>
</defs>
</svg>
