<svg width="65" height="64" viewBox="0 0 65 64" fill="none" xmlns="http://www.w3.org/2000/svg">
<rect x="1.16666" y="0.5" width="63" height="63" rx="3.5" fill="url(#paint0_linear_0_216)"/>
<rect x="1.16666" y="0.5" width="63" height="63" rx="3.5" stroke="white"/>
<path d="M20.1667 40.2334L18 38.6667L24.6667 28.0001L28.6667 32.6667L34 24.0001L37.6333 29.4334C37.1222 29.4556 36.6387 29.517 36.1827 29.6174C35.7267 29.7179 35.2769 29.8565 34.8333 30.0334L34.1 28.9334L29.0333 37.1667L25 32.4667L20.1667 40.2334ZM45.4333 46.6667L41.2667 42.5001C40.8222 42.8112 40.3275 43.0445 39.7827 43.2001C39.2378 43.3556 38.6769 43.4334 38.1 43.4334C36.4333 43.4334 35.0164 42.8499 33.8493 41.6827C32.6822 40.5156 32.0991 39.0992 32.1 37.4334C32.1 35.7668 32.6835 34.3499 33.8507 33.1827C35.0178 32.0156 36.4342 31.4325 38.1 31.4334C39.7667 31.4334 41.1835 32.017 42.3507 33.1841C43.5178 34.3512 44.1009 35.7676 44.1 37.4334C44.1 38.0112 44.0222 38.5725 43.8667 39.1174C43.7111 39.6623 43.4778 40.1676 43.1667 40.6334L47.3333 44.7668L45.4333 46.6667ZM38.1 40.7668C39.0333 40.7668 39.8222 40.4445 40.4667 39.8001C41.1111 39.1556 41.4333 38.3667 41.4333 37.4334C41.4333 36.5001 41.1111 35.7112 40.4667 35.0667C39.8222 34.4223 39.0333 34.1001 38.1 34.1001C37.1667 34.1001 36.3778 34.4223 35.7333 35.0667C35.0889 35.7112 34.7667 36.5001 34.7667 37.4334C34.7667 38.3667 35.0889 39.1556 35.7333 39.8001C36.3778 40.4445 37.1667 40.7668 38.1 40.7668ZM41.0667 30.1001C40.6444 29.9223 40.2053 29.7779 39.7493 29.6667C39.2933 29.5556 38.8213 29.489 38.3333 29.4667L45.1667 18.6667L47.3333 20.2334L41.0667 30.1001Z" fill="white"/>
<defs>
<linearGradient id="paint0_linear_0_216" x1="1" y1="-1.78814e-07" x2="65" y2="64" gradientUnits="userSpaceOnUse">
<stop offset="0.9999" stop-color="#9753EE"/>
<stop offset="1" stop-color="#AE3BAE"/>
</linearGradient>
</defs>
</svg>
