<svg width="64" height="64" viewBox="0 0 64 64" fill="none" xmlns="http://www.w3.org/2000/svg">
<rect x="0.5" y="0.5" width="63" height="63" rx="3.5" fill="url(#paint0_linear_0_175)"/>
<rect x="0.5" y="0.5" width="63" height="63" rx="3.5" stroke="white"/>
<g clip-path="url(#clip0_0_175)">
<path d="M44.0588 19.94C43.8695 19.7497 43.632 19.6143 43.3719 19.5483C43.1117 19.4822 42.8384 19.488 42.5813 19.565L18.5925 26.8338C18.2984 26.9165 18.0365 27.0871 17.842 27.3227C17.6475 27.5584 17.5295 27.8478 17.504 28.1523C17.4784 28.4568 17.5465 28.7618 17.699 29.0265C17.8515 29.2913 18.0813 29.5032 18.3575 29.6338L29.0588 34.7025C29.1634 34.7517 29.2478 34.8356 29.2975 34.94L34.3663 45.6425C34.4861 45.8996 34.677 46.1169 34.9165 46.2689C35.156 46.4208 35.4339 46.501 35.7175 46.5H35.8425C36.1458 46.4764 36.4344 46.3603 36.6696 46.1674C36.9047 45.9744 37.075 45.714 37.1575 45.4213L44.4338 21.4213V21.4113C44.5098 21.155 44.5151 20.883 44.4491 20.624C44.3831 20.3649 44.2482 20.1286 44.0588 19.94ZM43.4813 21.1325L36.2025 45.1325C36.1748 45.2303 36.118 45.3174 36.0395 45.3821C35.9611 45.4467 35.8648 45.486 35.7635 45.4945C35.6622 45.5031 35.5607 45.4805 35.4725 45.4299C35.3844 45.3793 35.3137 45.3031 35.27 45.2113L30.2013 34.5125L36.3563 28.3588C36.4027 28.3123 36.4396 28.2572 36.4647 28.1965C36.4899 28.1358 36.5028 28.0707 36.5028 28.005C36.5028 27.9393 36.4899 27.8743 36.4647 27.8136C36.4396 27.7529 36.4027 27.6977 36.3563 27.6513C36.3098 27.6048 36.2547 27.568 36.194 27.5428C36.1333 27.5177 36.0682 27.5047 36.0025 27.5047C35.9368 27.5047 35.8718 27.5177 35.8111 27.5428C35.7504 27.568 35.6952 27.6048 35.6488 27.6513L29.4938 33.8063L18.7863 28.73C18.6918 28.6878 18.6134 28.6166 18.5623 28.5266C18.5113 28.4366 18.4903 28.3327 18.5025 28.23C18.51 28.126 18.5503 28.0271 18.6177 27.9475C18.6852 27.868 18.7761 27.8119 18.8775 27.7875L42.8625 20.52C42.9072 20.5069 42.9535 20.5001 43 20.5C43.1313 20.5019 43.2566 20.5553 43.3488 20.6488C43.4123 20.7101 43.4581 20.7873 43.4814 20.8725C43.5047 20.9576 43.5047 21.0474 43.4813 21.1325Z" fill="white"/>
</g>
<defs>
<linearGradient id="paint0_linear_0_175" x1="0" y1="0" x2="64" y2="64" gradientUnits="userSpaceOnUse">
<stop stop-color="#9351E8"/>
</linearGradient>
<clipPath id="clip0_0_175">
<rect width="32" height="32" fill="white" transform="translate(16 16)"/>
</clipPath>
</defs>
</svg>
