<svg width="32" height="33" viewBox="0 0 32 33" fill="none" xmlns="http://www.w3.org/2000/svg">
<path d="M8.92667 8.59998V26.1933H4.70667C4.25633 26.1933 3.82424 26.0153 3.50456 25.6982C3.18488 25.381 3.00352 24.9503 3 24.5V11.7133M23.0733 8.59998V26.1933H27.2933C27.7437 26.1933 28.1758 26.0153 28.4954 25.6982C28.8151 25.381 28.9965 24.9503 29 24.5V11.7133" stroke="white" stroke-miterlimit="10"/>
<path d="M16 21.4667L29 11.8333V9.43333C28.9988 8.94778 28.863 8.47207 28.6077 8.05903C28.3525 7.64599 27.9877 7.31178 27.554 7.09353C27.1203 6.87528 26.6345 6.78153 26.1507 6.82269C25.6669 6.86384 25.204 7.03829 24.8133 7.32667L16 13.8733L7.18667 7.32667C6.79602 7.03829 6.3331 6.86384 5.84929 6.82269C5.36549 6.78153 4.87974 6.87528 4.446 7.09353C4.01227 7.31178 3.64751 7.64599 3.39225 8.05903C3.13699 8.47207 3.00121 8.94778 3 9.43333V11.8333L16 21.4667Z" stroke="white" stroke-miterlimit="10"/>
</svg>
