<svg width="32" height="33" viewBox="0 0 32 33" fill="none" xmlns="http://www.w3.org/2000/svg">
<path d="M16 10.75C14.8628 10.75 13.7511 11.0872 12.8055 11.719C11.8599 12.3509 11.1229 13.2489 10.6877 14.2996C10.2525 15.3502 10.1386 16.5064 10.3605 17.6218C10.5824 18.7372 11.13 19.7617 11.9341 20.5659C12.7383 21.37 13.7628 21.9177 14.8782 22.1395C15.9936 22.3614 17.1498 22.2475 18.2004 21.8123C19.2511 21.3771 20.1491 20.6401 20.781 19.6945C21.4128 18.7489 21.75 17.6372 21.75 16.5C21.748 14.9756 21.1416 13.5142 20.0637 12.4363C18.9858 11.3584 17.5244 10.752 16 10.75ZM16 20.75C15.1594 20.75 14.3377 20.5007 13.6388 20.0337C12.9399 19.5668 12.3952 18.903 12.0735 18.1264C11.7518 17.3498 11.6677 16.4953 11.8317 15.6709C11.9956 14.8464 12.4004 14.0892 12.9948 13.4948C13.5892 12.9004 14.3464 12.4956 15.1709 12.3317C15.9953 12.1677 16.8498 12.2518 17.6264 12.5735C18.403 12.8952 19.0668 13.4399 19.5337 14.1388C20.0007 14.8377 20.25 15.6594 20.25 16.5C20.25 17.6272 19.8022 18.7082 19.0052 19.5052C18.2082 20.3022 17.1272 20.75 16 20.75ZM22 3.75H10C8.2104 3.75199 6.49466 4.46378 5.22922 5.72922C3.96378 6.99466 3.25199 8.7104 3.25 10.5V22.5C3.25199 24.2896 3.96378 26.0053 5.22922 27.2708C6.49466 28.5362 8.2104 29.248 10 29.25H22C23.7896 29.248 25.5053 28.5362 26.7708 27.2708C28.0362 26.0053 28.748 24.2896 28.75 22.5V10.5C28.748 8.7104 28.0362 6.99466 26.7708 5.72922C25.5053 4.46378 23.7896 3.75199 22 3.75ZM27.25 22.5C27.25 23.8924 26.6969 25.2277 25.7123 26.2123C24.7277 27.1969 23.3924 27.75 22 27.75H10C8.60761 27.75 7.27225 27.1969 6.28769 26.2123C5.30312 25.2277 4.75 23.8924 4.75 22.5V10.5C4.75 9.10761 5.30312 7.77225 6.28769 6.78769C7.27225 5.80312 8.60761 5.25 10 5.25H22C23.3924 5.25 24.7277 5.80312 25.7123 6.78769C26.6969 7.77225 27.25 9.10761 27.25 10.5V22.5ZM23.75 10C23.75 10.2472 23.6767 10.4889 23.5393 10.6945C23.402 10.9 23.2068 11.0602 22.9784 11.1548C22.7499 11.2495 22.4986 11.2742 22.2561 11.226C22.0137 11.1778 21.7909 11.0587 21.6161 10.8839C21.4413 10.7091 21.3223 10.4863 21.274 10.2439C21.2258 10.0014 21.2505 9.75005 21.3451 9.52165C21.4398 9.29324 21.6 9.09801 21.8055 8.96066C22.0111 8.82331 22.2528 8.75 22.5 8.75C22.8315 8.75 23.1495 8.8817 23.3839 9.11612C23.6183 9.35054 23.75 9.66848 23.75 10Z" fill="white"/>
</svg>
