<svg width="32" height="33" viewBox="0 0 32 33" fill="none" xmlns="http://www.w3.org/2000/svg">
<path d="M27 3.75H5C4.53587 3.75 4.09075 3.93437 3.76256 4.26256C3.43437 4.59075 3.25 5.03587 3.25 5.5V27.5C3.25 27.9641 3.43437 28.4092 3.76256 28.7374C4.09075 29.0656 4.53587 29.25 5 29.25H27C27.4641 29.25 27.9092 29.0656 28.2374 28.7374C28.5656 28.4092 28.75 27.9641 28.75 27.5V5.5C28.75 5.03587 28.5656 4.59075 28.2374 4.26256C27.9092 3.93437 27.4641 3.75 27 3.75ZM27.25 27.5C27.25 27.5663 27.2237 27.6299 27.1768 27.6768C27.1299 27.7237 27.0663 27.75 27 27.75H5C4.9337 27.75 4.87011 27.7237 4.82322 27.6768C4.77634 27.6299 4.75 27.5663 4.75 27.5V5.5C4.75 5.4337 4.77634 5.37011 4.82322 5.32322C4.87011 5.27634 4.9337 5.25 5 5.25H27C27.0663 5.25 27.1299 5.27634 27.1768 5.32322C27.2237 5.37011 27.25 5.4337 27.25 5.5V27.5ZM11.75 14.5V22.5C11.75 22.6989 11.671 22.8897 11.5303 23.0303C11.3897 23.171 11.1989 23.25 11 23.25C10.8011 23.25 10.6103 23.171 10.4697 23.0303C10.329 22.8897 10.25 22.6989 10.25 22.5V14.5C10.25 14.3011 10.329 14.1103 10.4697 13.9697C10.6103 13.829 10.8011 13.75 11 13.75C11.1989 13.75 11.3897 13.829 11.5303 13.9697C11.671 14.1103 11.75 14.3011 11.75 14.5ZM22.75 18V22.5C22.75 22.6989 22.671 22.8897 22.5303 23.0303C22.3897 23.171 22.1989 23.25 22 23.25C21.8011 23.25 21.6103 23.171 21.4697 23.0303C21.329 22.8897 21.25 22.6989 21.25 22.5V18C21.25 17.2707 20.9603 16.5712 20.4445 16.0555C19.9288 15.5397 19.2293 15.25 18.5 15.25C17.7707 15.25 17.0712 15.5397 16.5555 16.0555C16.0397 16.5712 15.75 17.2707 15.75 18V22.5C15.75 22.6989 15.671 22.8897 15.5303 23.0303C15.3897 23.171 15.1989 23.25 15 23.25C14.8011 23.25 14.6103 23.171 14.4697 23.0303C14.329 22.8897 14.25 22.6989 14.25 22.5V14.5C14.25 14.3011 14.329 14.1103 14.4697 13.9697C14.6103 13.829 14.8011 13.75 15 13.75C15.1989 13.75 15.3897 13.829 15.5303 13.9697C15.671 14.1103 15.75 14.3011 15.75 14.5V14.7638C16.3681 14.2392 17.1233 13.9024 17.9266 13.793C18.7299 13.6836 19.5476 13.8062 20.2835 14.1464C21.0193 14.4866 21.6425 15.0302 22.0796 15.713C22.5166 16.3958 22.7492 17.1893 22.75 18ZM12.25 11C12.25 11.2472 12.1767 11.4889 12.0393 11.6945C11.902 11.9 11.7068 12.0602 11.4784 12.1548C11.2499 12.2495 10.9986 12.2742 10.7561 12.226C10.5137 12.1778 10.2909 12.0587 10.1161 11.8839C9.9413 11.7091 9.82225 11.4863 9.77402 11.2439C9.72579 11.0014 9.75054 10.7501 9.84515 10.5216C9.93976 10.2932 10.1 10.098 10.3055 9.96066C10.5111 9.82331 10.7528 9.75 11 9.75C11.3315 9.75 11.6495 9.8817 11.8839 10.1161C12.1183 10.3505 12.25 10.6685 12.25 11Z" fill="white"/>
</svg>
