<svg width="169" height="44" viewBox="0 0 169 44" fill="none" xmlns="http://www.w3.org/2000/svg">
<g clip-path="url(#clip0_0_46)">
<path fill-rule="evenodd" clip-rule="evenodd" d="M51.1829 18.6019V15.6893H45.3886V32.1942H51.1829V23.4563C51.1829 19.5728 56.0114 19.5728 57.9429 19.5728V27.3398C57.9429 30.2525 60.84 32.1942 63.7371 32.1942C65.6686 32.1942 66.6343 32.1942 68.5657 31.2233L67.6 27.3398C66.6343 27.3398 65.6686 28.3107 65.6686 28.3107C64.7029 28.3107 63.7371 27.3398 63.7371 26.369V20.5437H67.6V16.6602H63.7371V11.8058H57.9429V16.6602H56.0114C54.08 16.6602 52.1486 16.6602 51.1829 18.6019ZM161.274 13.7476C165.137 13.7476 168.034 15.6893 169 19.5728C169 22.4854 167.069 26.369 164.171 26.369C160.309 27.3398 157.411 25.3981 156.446 21.5146C155.48 18.6019 158.377 14.7184 161.274 13.7476ZM138.097 0.155276C142.926 -0.815601 148.72 3.06791 149.686 8.89317C150.651 13.7476 146.789 19.5728 141.96 20.5437C136.166 21.5146 130.371 17.6311 129.406 12.7767C128.44 6.95141 132.303 1.12615 138.097 0.155276ZM141.96 26.369C146.789 25.3981 151.617 28.3107 152.583 33.1651C153.549 38.0195 149.686 42.8739 144.857 43.8447C140.029 44.8156 135.2 41.903 134.234 37.0486C133.269 32.1942 136.166 27.3398 141.96 26.369ZM116.851 15.6893C113.954 15.6893 112.023 17.6311 111.057 19.5728V9.86405H108.16V32.1942H111.057V28.3107C112.023 31.2233 113.954 32.1942 116.851 32.1942C121.68 32.1942 124.577 29.2816 124.577 24.4272C124.577 19.5728 121.68 15.6893 116.851 15.6893ZM116.851 30.2525C112.989 30.2525 111.057 27.3398 111.057 24.4272C111.057 20.5437 112.989 18.6019 116.851 18.6019C119.749 18.6019 121.68 20.5437 121.68 24.4272C121.68 27.3398 119.749 30.2525 116.851 30.2525ZM101.4 16.6602V24.4272C101.4 27.3398 99.4686 30.2525 95.6057 30.2525C92.7086 30.2525 91.7429 28.3107 91.7429 25.3981V16.6602H88.8457V26.369C88.8457 30.2525 91.7429 32.1942 94.64 32.1942C97.5372 32.1942 100.434 31.2233 101.4 28.3107V32.1942H103.331V16.6602H101.4ZM79.1886 15.6893C76.2914 15.6893 74.36 17.6311 73.3943 19.5728V9.86405H70.4972V32.1942H73.3943V24.4272C73.3943 20.5437 75.3257 18.6019 78.2229 18.6019C81.12 18.6019 83.0514 20.5437 83.0514 22.4854V32.1942H84.9829V22.4854C84.9829 18.6019 83.0514 15.6893 79.1886 15.6893ZM35.7314 15.6893C32.8343 15.6893 30.9029 15.6893 28.0057 17.6311L29.9371 20.5437C31.8686 20.5437 32.8343 19.5728 34.7657 19.5728C36.6971 19.5728 37.6629 20.5437 37.6629 22.4854H33.8C28.9714 22.4854 27.04 24.4272 27.04 27.3398C27.04 30.2525 28.9714 32.1942 32.8343 32.1942C34.7657 32.1942 36.6971 31.2233 37.6629 30.2525V32.1942H42.4914V21.5146C42.4914 17.6311 40.56 15.6893 35.7314 15.6893ZM34.7657 28.3107C32.8343 28.3107 31.8686 28.3107 31.8686 26.369C31.8686 25.3981 32.8343 25.3981 34.7657 25.3981H37.6629V26.369C37.6629 27.3398 35.7314 28.3107 34.7657 28.3107ZM26.0743 27.3398C25.1086 27.3398 24.1429 28.3107 24.1429 28.3107C23.1771 28.3107 22.2114 27.3398 22.2114 26.369V20.5437H26.0743V16.6602H22.2114V11.8058H17.3829V16.6602H14.4857V20.5437H17.3829V27.3398C17.3829 30.2525 19.3143 32.1942 22.2114 32.1942C24.1429 32.1942 26.0743 32.1942 27.04 31.2233L26.0743 27.3398ZM12.5543 20.5437L14.4857 17.6311C12.5543 15.6893 9.65714 15.6893 7.72572 15.6893C3.86286 15.6893 0.965714 17.6311 0.965714 20.5437C0.965714 26.369 9.65714 25.3981 9.65714 27.3398C9.65714 28.3107 8.69143 28.3107 7.72572 28.3107C5.79429 28.3107 3.86286 28.3107 1.93143 26.369L0 30.2525C1.93143 31.2233 4.82857 32.1942 7.72572 32.1942C11.5886 32.1942 14.4857 30.2525 14.4857 27.3398C14.4857 21.5146 5.79429 22.4854 5.79429 20.5437C5.79429 19.5728 6.76 19.5728 7.72572 19.5728C8.69143 19.5728 10.6229 19.5728 12.5543 20.5437Z" fill="white"/>
</g>
<defs>
<clipPath id="clip0_0_46">
<rect width="169" height="44" fill="white"/>
</clipPath>
</defs>
</svg>
