<svg width="125" height="24" viewBox="0 0 125 24" fill="none" xmlns="http://www.w3.org/2000/svg">
<path fill-rule="evenodd" clip-rule="evenodd" d="M51.1829 9.60191V6.68927H45.3886V23.1942H51.1829V14.4563C51.1829 10.5728 56.0114 10.5728 57.9429 10.5728V18.3398C57.9429 21.2524 60.84 23.1942 63.7371 23.1942C65.6686 23.1942 66.6343 23.1942 68.5657 22.2233L67.6 18.3398C66.6343 18.3398 65.6686 19.3107 65.6686 19.3107C64.7029 19.3107 63.7371 18.3398 63.7371 17.3689V11.5437H67.6V7.66015H63.7371V2.80577H57.9429V7.66015H56.0114C54.08 7.66015 52.1486 7.66015 51.1829 9.60191ZM116.851 6.68927C113.954 6.68927 112.023 8.63103 111.057 10.5728V0.864014H108.16V23.1942H111.057V19.3107C112.023 22.2233 113.954 23.1942 116.851 23.1942C121.68 23.1942 124.577 20.2816 124.577 15.4272C124.577 10.5728 121.68 6.68927 116.851 6.68927ZM116.851 21.2524C112.989 21.2524 111.057 18.3398 111.057 15.4272C111.057 11.5437 112.989 9.60191 116.851 9.60191C119.749 9.60191 121.68 11.5437 121.68 15.4272C121.68 18.3398 119.749 21.2524 116.851 21.2524ZM101.4 7.66015V15.4272C101.4 18.3398 99.4686 21.2524 95.6057 21.2524C92.7086 21.2524 91.7429 19.3107 91.7429 16.398V7.66015H88.8457V17.3689C88.8457 21.2524 91.7429 23.1942 94.64 23.1942C97.5372 23.1942 100.434 22.2233 101.4 19.3107V23.1942H103.331V7.66015H101.4ZM79.1886 6.68927C76.2914 6.68927 74.36 8.63103 73.3943 10.5728V0.864014H70.4972V23.1942H73.3943V15.4272C73.3943 11.5437 75.3257 9.60191 78.2229 9.60191C81.12 9.60191 83.0514 11.5437 83.0514 13.4854V23.1942H84.9829V13.4854C84.9829 9.60191 83.0514 6.68927 79.1886 6.68927ZM35.7314 6.68927C32.8343 6.68927 30.9029 6.68927 28.0057 8.63103L29.9371 11.5437C31.8686 11.5437 32.8343 10.5728 34.7657 10.5728C36.6971 10.5728 37.6629 11.5437 37.6629 13.4854H33.8C28.9714 13.4854 27.04 15.4272 27.04 18.3398C27.04 21.2524 28.9714 23.1942 32.8343 23.1942C34.7657 23.1942 36.6971 22.2233 37.6629 21.2524V23.1942H42.4914V12.5145C42.4914 8.63103 40.56 6.68927 35.7314 6.68927ZM34.7657 19.3107C32.8343 19.3107 31.8686 19.3107 31.8686 17.3689C31.8686 16.398 32.8343 16.398 34.7657 16.398H37.6629V17.3689C37.6629 18.3398 35.7314 19.3107 34.7657 19.3107ZM26.0743 18.3398C25.1086 18.3398 24.1429 19.3107 24.1429 19.3107C23.1771 19.3107 22.2114 18.3398 22.2114 17.3689V11.5437H26.0743V7.66015H22.2114V2.80577H17.3829V7.66015H14.4857V11.5437H17.3829V18.3398C17.3829 21.2524 19.3143 23.1942 22.2114 23.1942C24.1429 23.1942 26.0743 23.1942 27.04 22.2233L26.0743 18.3398ZM12.5543 11.5437L14.4857 8.63103C12.5543 6.68927 9.65714 6.68927 7.72572 6.68927C3.86286 6.68927 0.965714 8.63103 0.965714 11.5437C0.965714 17.3689 9.65714 16.398 9.65714 18.3398C9.65714 19.3107 8.69143 19.3107 7.72572 19.3107C5.79429 19.3107 3.86286 19.3107 1.93143 17.3689L0 21.2524C1.93143 22.2233 4.82857 23.1942 7.72572 23.1942C11.5886 23.1942 14.4857 21.2524 14.4857 18.3398C14.4857 12.5145 5.79429 13.4854 5.79429 11.5437C5.79429 10.5728 6.76 10.5728 7.72572 10.5728C8.69143 10.5728 10.6229 10.5728 12.5543 11.5437Z" fill="white"/>
</svg>
