<svg width="83" height="20" viewBox="0 0 83 20" fill="none" xmlns="http://www.w3.org/2000/svg">
<path d="M1 10.5L10 1H49.5" stroke="white" stroke-linecap="round"/>
<path d="M16.382 19.196C15.6727 19.196 15.038 19.07 14.478 18.818C13.918 18.566 13.4747 18.188 13.148 17.684C12.8307 17.1707 12.672 16.5313 12.672 15.766V15.472H13.834V15.766C13.834 16.578 14.072 17.1847 14.548 17.586C15.024 17.978 15.6353 18.174 16.382 18.174C17.1473 18.174 17.7307 18.0013 18.132 17.656C18.5333 17.3107 18.734 16.8767 18.734 16.354C18.734 15.99 18.6407 15.7007 18.454 15.486C18.2767 15.2713 18.0247 15.0987 17.698 14.968C17.3713 14.828 16.9887 14.7067 16.55 14.604L15.822 14.422C15.2527 14.2727 14.7487 14.0907 14.31 13.876C13.8713 13.6613 13.526 13.3813 13.274 13.036C13.0313 12.6813 12.91 12.2287 12.91 11.678C12.91 11.1273 13.0453 10.6513 13.316 10.25C13.596 9.84867 13.9833 9.54067 14.478 9.326C14.982 9.11133 15.5607 9.004 16.214 9.004C16.8767 9.004 17.4693 9.12067 17.992 9.354C18.524 9.578 18.9393 9.914 19.238 10.362C19.546 10.8007 19.7 11.356 19.7 12.028V12.616H18.538V12.028C18.538 11.552 18.4353 11.1693 18.23 10.88C18.034 10.5907 17.7587 10.376 17.404 10.236C17.0587 10.096 16.662 10.026 16.214 10.026C15.57 10.026 15.052 10.1707 14.66 10.46C14.268 10.74 14.072 11.1413 14.072 11.664C14.072 12.0093 14.156 12.2893 14.324 12.504C14.492 12.7187 14.73 12.896 15.038 13.036C15.346 13.1667 15.7147 13.2833 16.144 13.386L16.872 13.568C17.4413 13.6893 17.95 13.8573 18.398 14.072C18.8553 14.2773 19.2193 14.562 19.49 14.926C19.7607 15.2807 19.896 15.7473 19.896 16.326C19.896 16.9047 19.7513 17.4087 19.462 17.838C19.1727 18.2673 18.762 18.6033 18.23 18.846C17.7073 19.0793 17.0913 19.196 16.382 19.196ZM20.7549 19L23.7789 9.2H25.8509L28.8749 19H27.6569L26.9009 16.522H22.7289L21.9729 19H20.7549ZM23.0229 15.458H26.5929L24.9129 9.914H24.7169L23.0229 15.458ZM23.1489 8.388L22.4909 7.94L22.9389 7.24C23.0603 7.06267 23.2003 6.918 23.3589 6.806C23.5176 6.68467 23.7183 6.624 23.9609 6.624C24.1756 6.624 24.3623 6.67067 24.5209 6.764C24.6889 6.85733 24.8616 6.99733 25.0389 7.184C25.1603 7.30533 25.2629 7.40333 25.3469 7.478C25.4309 7.54333 25.5289 7.576 25.6409 7.576C25.7529 7.576 25.8416 7.54333 25.9069 7.478C25.9816 7.41267 26.0516 7.33333 26.1169 7.24L26.4809 6.666L27.1389 7.114L26.6909 7.814C26.5789 7.982 26.4436 8.12667 26.2849 8.248C26.1263 8.36933 25.9256 8.43 25.6829 8.43C25.4589 8.43 25.2676 8.38333 25.1089 8.29C24.9503 8.19667 24.7823 8.05667 24.6049 7.87C24.4836 7.74867 24.3809 7.65533 24.2969 7.59C24.2129 7.52467 24.1149 7.492 24.0029 7.492C23.8909 7.492 23.7976 7.52467 23.7229 7.59C23.6483 7.65533 23.5783 7.73467 23.5129 7.828L23.1489 8.388ZM33.6226 19.196C32.4559 19.196 31.5226 18.86 30.8226 18.188C30.1319 17.5067 29.7866 16.5173 29.7866 15.22V12.98C29.7866 11.6827 30.1319 10.698 30.8226 10.026C31.5226 9.34467 32.4559 9.004 33.6226 9.004C34.7986 9.004 35.7319 9.34467 36.4226 10.026C37.1226 10.698 37.4726 11.6827 37.4726 12.98V15.22C37.4726 16.5173 37.1226 17.5067 36.4226 18.188C35.7319 18.86 34.7986 19.196 33.6226 19.196ZM33.6226 18.146C34.4719 18.146 35.1299 17.894 35.5966 17.39C36.0632 16.8767 36.2966 16.1673 36.2966 15.262V12.938C36.2966 12.0327 36.0632 11.328 35.5966 10.824C35.1299 10.3107 34.4719 10.054 33.6226 10.054C32.7826 10.054 32.1292 10.3107 31.6626 10.824C31.1959 11.328 30.9626 12.0327 30.9626 12.938V15.262C30.9626 16.1673 31.1959 16.8767 31.6626 17.39C32.1292 17.894 32.7826 18.146 33.6226 18.146ZM42.7475 19V9.2H46.4995C47.0875 9.2 47.6102 9.31667 48.0675 9.55C48.5342 9.774 48.9028 10.096 49.1735 10.516C49.4442 10.936 49.5795 11.4447 49.5795 12.042V12.224C49.5795 12.812 49.4395 13.3207 49.1595 13.75C48.8888 14.17 48.5202 14.492 48.0535 14.716C47.5868 14.94 47.0688 15.052 46.4995 15.052H43.9235V19H42.7475ZM43.9235 13.988H46.3735C46.9988 13.988 47.4935 13.834 47.8575 13.526C48.2215 13.2087 48.4035 12.7653 48.4035 12.196V12.056C48.4035 11.4867 48.2215 11.048 47.8575 10.74C47.5028 10.4227 47.0082 10.264 46.3735 10.264H43.9235V13.988ZM49.4527 19L52.4767 9.2H54.5487L57.5727 19H56.3547L55.5987 16.522H51.4267L50.6707 19H49.4527ZM51.7207 15.458H55.2907L53.6107 9.914H53.4147L51.7207 15.458ZM62.2517 19.196C61.5237 19.196 60.889 19.0653 60.3477 18.804C59.8064 18.5427 59.3864 18.1553 59.0877 17.642C58.789 17.1193 58.6397 16.48 58.6397 15.724V9.2H59.8017V15.738C59.8017 16.5407 60.0164 17.1427 60.4457 17.544C60.875 17.9453 61.477 18.146 62.2517 18.146C63.0264 18.146 63.6284 17.9453 64.0577 17.544C64.487 17.1427 64.7017 16.5407 64.7017 15.738V9.2H65.8777V15.724C65.8777 16.48 65.7284 17.1193 65.4297 17.642C65.131 18.1553 64.7064 18.5427 64.1557 18.804C63.6144 19.0653 62.9797 19.196 62.2517 19.196ZM67.8939 19V9.2H69.0699V17.936H74.0259V19H67.8939ZM78.679 19.196C77.5124 19.196 76.579 18.86 75.879 18.188C75.1884 17.5067 74.843 16.5173 74.843 15.22V12.98C74.843 11.6827 75.1884 10.698 75.879 10.026C76.579 9.34467 77.5124 9.004 78.679 9.004C79.855 9.004 80.7884 9.34467 81.479 10.026C82.179 10.698 82.529 11.6827 82.529 12.98V15.22C82.529 16.5173 82.179 17.5067 81.479 18.188C80.7884 18.86 79.855 19.196 78.679 19.196ZM78.679 18.146C79.5284 18.146 80.1864 17.894 80.653 17.39C81.1197 16.8767 81.353 16.1673 81.353 15.262V12.938C81.353 12.0327 81.1197 11.328 80.653 10.824C80.1864 10.3107 79.5284 10.054 78.679 10.054C77.839 10.054 77.1857 10.3107 76.719 10.824C76.2524 11.328 76.019 12.0327 76.019 12.938V15.262C76.019 16.1673 76.2524 16.8767 76.719 17.39C77.1857 17.894 77.839 18.146 78.679 18.146Z" fill="white"/>
</svg>
