<svg width="18" height="17" viewBox="0 0 18 17" fill="none" xmlns="http://www.w3.org/2000/svg">
<path d="M9 14.275L4.85 16.775C4.66667 16.8916 4.475 16.9416 4.275 16.9249C4.075 16.9083 3.9 16.8416 3.75 16.725C3.6 16.6083 3.48333 16.4623 3.4 16.287C3.31667 16.1116 3.3 15.916 3.35 15.7L4.45 10.975L0.775001 7.79995C0.608334 7.64995 0.504334 7.47895 0.463001 7.28695C0.421668 7.09495 0.434001 6.90762 0.500001 6.72495C0.566667 6.54162 0.666667 6.39162 0.800001 6.27495C0.933334 6.15828 1.11667 6.08328 1.35 6.04995L6.2 5.62495L8.075 1.17495C8.15833 0.974952 8.28767 0.824951 8.463 0.724951C8.63833 0.624951 8.81733 0.574951 9 0.574951C9.18333 0.574951 9.36233 0.624951 9.537 0.724951C9.71167 0.824951 9.841 0.974952 9.925 1.17495L11.8 5.62495L16.65 6.04995C16.8833 6.08328 17.0667 6.15828 17.2 6.27495C17.3333 6.39162 17.4333 6.54162 17.5 6.72495C17.5667 6.90829 17.5793 7.09595 17.538 7.28795C17.4967 7.47995 17.3923 7.65062 17.225 7.79995L13.55 10.975L14.65 15.7C14.7 15.9166 14.6833 16.1126 14.6 16.288C14.5167 16.4633 14.4 16.609 14.25 16.725C14.1 16.8416 13.925 16.9083 13.725 16.9249C13.525 16.9416 13.3333 16.8916 13.15 16.775L9 14.275Z" fill="#F8B14D"/>
</svg>
